<svg xmlns="http://www.w3.org/2000/svg" width="293.703" height="291.396" viewBox="0 0 293.703 291.396">
    <linearGradient id="a" gradientUnits="userSpaceOnUse" x1="123.766" y1="35.217" x2="123.766" y2="195.125">
        <stop offset="0" stop-color="#fff"/>
        <stop offset="1" stop-color="#b2b2b2"/>
    </linearGradient>
    <path fill="url(#a)" d="M109.571 165.958h28.39v3.417h-28.39z"/>
    <linearGradient id="b" gradientUnits="userSpaceOnUse" x1="97.048" y1="35.217" x2="97.048" y2="195.125">
        <stop offset="0" stop-color="#fff"/>
        <stop offset="1" stop-color="#b2b2b2"/>
    </linearGradient>
    <path fill="url(#b)" d="M87.957 165.958h18.183v3.417H87.957z"/>
    <linearGradient id="c" gradientUnits="userSpaceOnUse" x1="97.048" y1="35.222" x2="97.048" y2="195.124">
        <stop offset="0" stop-color="#fff"/>
        <stop offset="1" stop-color="#b2b2b2"/>
    </linearGradient>
    <path fill="url(#c)" d="M87.957 160.35h18.183v2.41H87.957z"/>
    <linearGradient id="d" gradientUnits="userSpaceOnUse" x1="97.048" y1="35.247" x2="97.048" y2="195.116">
        <stop offset="0" stop-color="#fff"/>
        <stop offset="1" stop-color="#b2b2b2"/>
    </linearGradient>
    <path fill="url(#d)" d="M87.957 154.743h18.183v2.409H87.957z"/>
    <linearGradient id="e" gradientUnits="userSpaceOnUse" x1="97.048" y1="35.223" x2="97.048" y2="195.125">
        <stop offset="0" stop-color="#fff"/>
        <stop offset="1" stop-color="#b2b2b2"/>
    </linearGradient>
    <path fill="url(#e)" d="M87.957 149.135h18.183v2.41H87.957z"/>
    <linearGradient id="f" gradientUnits="userSpaceOnUse" x1="97.048" y1="35.223" x2="97.048" y2="195.125">
        <stop offset="0" stop-color="#fff"/>
        <stop offset="1" stop-color="#b2b2b2"/>
    </linearGradient>
    <path fill="url(#f)" d="M87.957 143.527h18.183v2.41H87.957z"/>
    <linearGradient id="g" gradientUnits="userSpaceOnUse" x1="97.048" y1="35.223" x2="97.048" y2="195.125">
        <stop offset="0" stop-color="#fff"/>
        <stop offset="1" stop-color="#b2b2b2"/>
    </linearGradient>
    <path fill="url(#g)" d="M87.957 137.919h18.183v2.41H87.957z"/>
    <linearGradient id="h" gradientUnits="userSpaceOnUse" x1="97.048" y1="35.223" x2="97.048" y2="195.125">
        <stop offset="0" stop-color="#fff"/>
        <stop offset="1" stop-color="#b2b2b2"/>
    </linearGradient>
    <path fill="url(#h)" d="M87.957 132.311h18.183v2.41H87.957z"/>
    <linearGradient id="i" gradientUnits="userSpaceOnUse" x1="97.048" y1="35.223" x2="97.048" y2="195.125">
        <stop offset="0" stop-color="#fff"/>
        <stop offset="1" stop-color="#b2b2b2"/>
    </linearGradient>
    <path fill="url(#i)" d="M87.957 126.703h18.183v2.41H87.957z"/>
    <linearGradient id="j" gradientUnits="userSpaceOnUse" x1="97.048" y1="35.223" x2="97.048" y2="195.125">
        <stop offset="0" stop-color="#fff"/>
        <stop offset="1" stop-color="#b2b2b2"/>
    </linearGradient>
    <path fill="url(#j)" d="M87.957 121.095h18.183v2.41H87.957z"/>
    <linearGradient id="k" gradientUnits="userSpaceOnUse" x1="97.048" y1="35.223" x2="97.048" y2="195.125">
        <stop offset="0" stop-color="#fff"/>
        <stop offset="1" stop-color="#b2b2b2"/>
    </linearGradient>
    <path fill="url(#k)" d="M87.957 115.487h18.183v2.41H87.957z"/>
    <linearGradient id="l" gradientUnits="userSpaceOnUse" x1="97.048" y1="35.223" x2="97.048" y2="195.125">
        <stop offset="0" stop-color="#fff"/>
        <stop offset="1" stop-color="#b2b2b2"/>
    </linearGradient>
    <path fill="url(#l)" d="M87.957 109.879h18.183v2.41H87.957z"/>
    <linearGradient id="m" gradientUnits="userSpaceOnUse" x1="97.048" y1="35.237" x2="97.048" y2="195.107">
        <stop offset="0" stop-color="#fff"/>
        <stop offset="1" stop-color="#b2b2b2"/>
    </linearGradient>
    <path fill="url(#m)" d="M87.957 104.272h18.183v2.409H87.957z"/>
    <linearGradient id="n" gradientUnits="userSpaceOnUse" x1="97.048" y1="35.224" x2="97.048" y2="195.126">
        <stop offset="0" stop-color="#fff"/>
        <stop offset="1" stop-color="#b2b2b2"/>
    </linearGradient>
    <path fill="url(#n)" d="M87.957 98.664h18.183v2.41H87.957z"/>
    <linearGradient id="o" gradientUnits="userSpaceOnUse" x1="110.761" y1="35.225" x2="110.761" y2="195.123">
        <stop offset="0" stop-color="#fff"/>
        <stop offset="1" stop-color="#b2b2b2"/>
    </linearGradient>
    <path fill="url(#o)" d="M109.556 48.893h2.41V162.76h-2.41z"/>
    <linearGradient id="p" gradientUnits="userSpaceOnUse" x1="117.15" y1="35.225" x2="117.15" y2="195.123">
        <stop offset="0" stop-color="#fff"/>
        <stop offset="1" stop-color="#b2b2b2"/>
    </linearGradient>
    <path fill="url(#p)" d="M115.383 48.893h3.534V162.76h-3.534z"/>
    <linearGradient id="q" gradientUnits="userSpaceOnUse" x1="125.066" y1="35.225" x2="125.066" y2="195.123">
        <stop offset="0" stop-color="#fff"/>
        <stop offset="1" stop-color="#b2b2b2"/>
    </linearGradient>
    <path fill="url(#q)" d="M122.335 48.893h5.462V162.76h-5.462z"/>
    <linearGradient id="r" gradientUnits="userSpaceOnUse" x1="134.587" y1="35.225" x2="134.587" y2="195.123">
        <stop offset="0" stop-color="#fff"/>
        <stop offset="1" stop-color="#b2b2b2"/>
    </linearGradient>
    <path fill="url(#r)" d="M131.215 48.893h6.746V162.76h-6.746z"/>
    <linearGradient id="s" gradientUnits="userSpaceOnUse" x1="145.393" y1="35.225" x2="145.393" y2="195.124">
        <stop offset="0" stop-color="#fff"/>
        <stop offset="1" stop-color="#b2b2b2"/>
    </linearGradient>
    <path fill="url(#s)" d="M141.451 42.286h7.884v127.089h-7.884z"/>
    <linearGradient id="t" gradientUnits="userSpaceOnUse" x1="123.766" y1="35.225" x2="123.766" y2="195.133">
        <stop offset="0" stop-color="#fff"/>
        <stop offset="1" stop-color="#b2b2b2"/>
    </linearGradient>
    <path fill="url(#t)" d="M109.571 42.286h28.39v3.417h-28.39z"/>
    <linearGradient id="u" gradientUnits="userSpaceOnUse" x1="139.166" y1="35.225" x2="139.166" y2="195.12">
        <stop offset="0" stop-color="#fff"/>
        <stop offset="1" stop-color="#b2b2b2"/>
    </linearGradient>
    <path fill="url(#u)" d="M137.96 14.254h2.41v16.415h-2.41z"/>
    <linearGradient id="v" gradientUnits="userSpaceOnUse" x1="145.393" y1="35.216" x2="145.393" y2="195.125">
        <stop offset="0" stop-color="#fff"/>
        <stop offset="1" stop-color="#b2b2b2"/>
    </linearGradient>
    <path fill="url(#v)" d="M145.393 172.968H67.788v3.417h155.21v-3.417z"/>
    <linearGradient id="w" gradientUnits="userSpaceOnUse" x1="167.019" y1="35.217" x2="167.019" y2="195.125">
        <stop offset="0" stop-color="#fff"/>
        <stop offset="1" stop-color="#b2b2b2"/>
    </linearGradient>
    <path fill="url(#w)" d="M152.825 165.958h28.39v3.417h-28.39z"/>
    <linearGradient id="x" gradientUnits="userSpaceOnUse" x1="193.737" y1="35.217" x2="193.737" y2="195.125">
        <stop offset="0" stop-color="#fff"/>
        <stop offset="1" stop-color="#b2b2b2"/>
    </linearGradient>
    <path fill="url(#x)" d="M184.646 165.958h18.183v3.417h-18.183z"/>
    <linearGradient id="y" gradientUnits="userSpaceOnUse" x1="193.737" y1="35.222" x2="193.737" y2="195.124">
        <stop offset="0" stop-color="#fff"/>
        <stop offset="1" stop-color="#b2b2b2"/>
    </linearGradient>
    <path fill="url(#y)" d="M184.646 160.35h18.183v2.41h-18.183z"/>
    <linearGradient id="z" gradientUnits="userSpaceOnUse" x1="193.737" y1="35.247" x2="193.737" y2="195.116">
        <stop offset="0" stop-color="#fff"/>
        <stop offset="1" stop-color="#b2b2b2"/>
    </linearGradient>
    <path fill="url(#z)" d="M184.646 154.743h18.183v2.409h-18.183z"/>
    <linearGradient id="A" gradientUnits="userSpaceOnUse" x1="193.737" y1="35.223" x2="193.737" y2="195.125">
        <stop offset="0" stop-color="#fff"/>
        <stop offset="1" stop-color="#b2b2b2"/>
    </linearGradient>
    <path fill="url(#A)" d="M184.646 149.135h18.183v2.41h-18.183z"/>
    <linearGradient id="B" gradientUnits="userSpaceOnUse" x1="193.737" y1="35.223" x2="193.737" y2="195.125">
        <stop offset="0" stop-color="#fff"/>
        <stop offset="1" stop-color="#b2b2b2"/>
    </linearGradient>
    <path fill="url(#B)" d="M184.646 143.527h18.183v2.41h-18.183z"/>
    <linearGradient id="C" gradientUnits="userSpaceOnUse" x1="193.737" y1="35.223" x2="193.737" y2="195.125">
        <stop offset="0" stop-color="#fff"/>
        <stop offset="1" stop-color="#b2b2b2"/>
    </linearGradient>
    <path fill="url(#C)" d="M184.646 137.919h18.183v2.41h-18.183z"/>
    <linearGradient id="D" gradientUnits="userSpaceOnUse" x1="193.737" y1="35.223" x2="193.737" y2="195.125">
        <stop offset="0" stop-color="#fff"/>
        <stop offset="1" stop-color="#b2b2b2"/>
    </linearGradient>
    <path fill="url(#D)" d="M184.646 132.311h18.183v2.41h-18.183z"/>
    <linearGradient id="E" gradientUnits="userSpaceOnUse" x1="193.737" y1="35.223" x2="193.737" y2="195.125">
        <stop offset="0" stop-color="#fff"/>
        <stop offset="1" stop-color="#b2b2b2"/>
    </linearGradient>
    <path fill="url(#E)" d="M184.646 126.703h18.183v2.41h-18.183z"/>
    <linearGradient id="F" gradientUnits="userSpaceOnUse" x1="193.737" y1="35.223" x2="193.737" y2="195.125">
        <stop offset="0" stop-color="#fff"/>
        <stop offset="1" stop-color="#b2b2b2"/>
    </linearGradient>
    <path fill="url(#F)" d="M184.646 121.095h18.183v2.41h-18.183z"/>
    <linearGradient id="G" gradientUnits="userSpaceOnUse" x1="193.737" y1="35.223" x2="193.737" y2="195.125">
        <stop offset="0" stop-color="#fff"/>
        <stop offset="1" stop-color="#b2b2b2"/>
    </linearGradient>
    <path fill="url(#G)" d="M184.646 115.487h18.183v2.41h-18.183z"/>
    <linearGradient id="H" gradientUnits="userSpaceOnUse" x1="193.737" y1="35.223" x2="193.737" y2="195.125">
        <stop offset="0" stop-color="#fff"/>
        <stop offset="1" stop-color="#b2b2b2"/>
    </linearGradient>
    <path fill="url(#H)" d="M184.646 109.879h18.183v2.41h-18.183z"/>
    <linearGradient id="I" gradientUnits="userSpaceOnUse" x1="193.737" y1="35.237" x2="193.737" y2="195.107">
        <stop offset="0" stop-color="#fff"/>
        <stop offset="1" stop-color="#b2b2b2"/>
    </linearGradient>
    <path fill="url(#I)" d="M184.646 104.272h18.183v2.409h-18.183z"/>
    <linearGradient id="J" gradientUnits="userSpaceOnUse" x1="193.737" y1="35.224" x2="193.737" y2="195.126">
        <stop offset="0" stop-color="#fff"/>
        <stop offset="1" stop-color="#b2b2b2"/>
    </linearGradient>
    <path fill="url(#J)" d="M184.646 98.664h18.183v2.41h-18.183z"/>
    <linearGradient id="K" gradientUnits="userSpaceOnUse" x1="180.024" y1="35.225" x2="180.024" y2="195.123">
        <stop offset="0" stop-color="#fff"/>
        <stop offset="1" stop-color="#b2b2b2"/>
    </linearGradient>
    <path fill="url(#K)" d="M178.819 48.893h2.41V162.76h-2.41z"/>
    <linearGradient id="L" gradientUnits="userSpaceOnUse" x1="173.635" y1="35.225" x2="173.635" y2="195.123">
        <stop offset="0" stop-color="#fff"/>
        <stop offset="1" stop-color="#b2b2b2"/>
    </linearGradient>
    <path fill="url(#L)" d="M171.868 48.893h3.534V162.76h-3.534z"/>
    <linearGradient id="M" gradientUnits="userSpaceOnUse" x1="165.719" y1="35.225" x2="165.719" y2="195.123">
        <stop offset="0" stop-color="#fff"/>
        <stop offset="1" stop-color="#b2b2b2"/>
    </linearGradient>
    <path fill="url(#M)" d="M162.988 48.893h5.462V162.76h-5.462z"/>
    <linearGradient id="N" gradientUnits="userSpaceOnUse" x1="156.198" y1="35.225" x2="156.198" y2="195.123">
        <stop offset="0" stop-color="#fff"/>
        <stop offset="1" stop-color="#b2b2b2"/>
    </linearGradient>
    <path fill="url(#N)" d="M152.825 48.893h6.746V162.76h-6.746z"/>
    <linearGradient id="O" gradientUnits="userSpaceOnUse" x1="167.019" y1="35.225" x2="167.019" y2="195.133">
        <stop offset="0" stop-color="#fff"/>
        <stop offset="1" stop-color="#b2b2b2"/>
    </linearGradient>
    <path fill="url(#O)" d="M152.825 42.286h28.39v3.417h-28.39z"/>
    <linearGradient id="P" gradientUnits="userSpaceOnUse" x1="145.393" y1="35.225" x2="145.393" y2="195.127">
        <stop offset="0" stop-color="#fff"/>
        <stop offset="1" stop-color="#b2b2b2"/>
    </linearGradient>
    <path fill="url(#P)" d="M145.393 39.737h35.88v-2.41h-71.761v2.41h35.88z"/>
    <linearGradient id="Q" gradientUnits="userSpaceOnUse" x1="145.393" y1="35.225" x2="145.393" y2="195.086">
        <stop offset="0" stop-color="#fff"/>
        <stop offset="1" stop-color="#b2b2b2"/>
    </linearGradient>
    <path fill="url(#Q)" d="M164.841 34.778v-1.597H125.944v1.597h19.449z"/>
    <linearGradient id="R" gradientUnits="userSpaceOnUse" x1="151.62" y1="35.225" x2="151.62" y2="195.12">
        <stop offset="0" stop-color="#fff"/>
        <stop offset="1" stop-color="#b2b2b2"/>
    </linearGradient>
    <path fill="url(#R)" d="M150.415 14.254h2.41v16.415h-2.41z"/>
    <linearGradient id="S" gradientUnits="userSpaceOnUse" x1="145.386" y1="35.225" x2="145.386" y2="195.124">
        <stop offset="0" stop-color="#fff"/>
        <stop offset="1" stop-color="#b2b2b2"/>
    </linearGradient>
    <path fill="url(#S)" d="M142.852 0h5.07v30.668h-5.07z"/>
    <g fill="#FFF">
        <path d="M33.159 211.169c.452.361.874.542 1.205.542.874 0 1.355-1.145 1.596-3.674h1.416c-.181 3.162-.241 7.409-.241 14.938H35.69c-.663-5.662-1.446-8.644-4.638-11.173-2.048-1.988-4.879-3.042-7.8-3.042-8.854 0-12.288 10.33-12.288 21.232 0 11.053 3.704 21.082 12.528 21.082 2.711 0 5.692-.994 7.68-2.981 3.192-2.47 3.945-5.903 4.518-11.926h1.445c0 7.831.061 12.258.241 15.541H35.96c-.241-2.53-.632-3.645-1.506-3.645-.361 0-.783.181-1.295.512-3.012 2.138-6.084 4.005-11.384 4.005C8.704 252.581 0 244.359 0 230.234c0-13.794 9.005-23.07 21.835-23.07 5.421 0 8.614 1.927 11.324 4.005zM55.205 245.985c0 3.434 1.054 4.427 3.945 4.427v1.295c-1.566-.061-5.03-.241-8.252-.241-3.192 0-6.896.181-8.523.241v-1.295c2.861 0 3.945-.994 3.945-4.427v-19.456c0-3.705-.964-5.451-3.945-5.451v-1.295c1.295.12 2.59.211 3.825.211 3.434 0 6.415-.271 9.005-.874v26.865zm.753-37.345c0 2.981-2.199 4.789-5.602 4.789-3.463 0-5.632-1.807-5.632-4.789 0-2.951 2.168-4.758 5.632-4.758 3.403-.001 5.602 1.806 5.602 4.758zM81.618 219.843v1.235H74.33v24.877c0 2.53.904 3.433 2.711 3.433 1.506 0 3.012-.963 4.216-3.704l1.024.572c-1.355 3.674-3.885 6.324-8.433 6.324-2.771 0-4.79-.692-6.175-2.078-1.777-1.807-2.229-4.307-2.229-8.613v-20.811h-5.18v-1.235h5.18v-8.162c3.463-.03 6.325-.603 8.885-1.988v10.149h7.289zM96.346 245.985c0 3.434 1.054 4.427 3.945 4.427v1.295c-1.566-.061-5.03-.241-8.252-.241-3.192 0-6.896.181-8.523.241v-1.295c2.861 0 3.945-.994 3.945-4.427v-19.456c0-3.705-.964-5.451-3.945-5.451v-1.295c1.295.12 2.59.211 3.825.211 3.434 0 6.415-.271 9.005-.874v26.865zm.753-37.345c0 2.981-2.199 4.789-5.602 4.789-3.463 0-5.632-1.807-5.632-4.789 0-2.951 2.168-4.758 5.632-4.758 3.403-.001 5.602 1.806 5.602 4.758zM132.366 244.811c0 4.819 1.114 5.481 6.596 5.542v1.355c-2.53-.09-6.837-.181-11.234-.181-3.554 0-7.107.09-9.788.181v-1.235c3.916-.181 4.608-.813 4.608-5.301v-30.599c0-4.487-.723-5.12-4.608-5.301v-1.234c2.078.12 5.903.181 9.367.181 4.036 0 8.131-.121 9.698-.121 11.475 0 17.076 5 17.076 12.167 0 5.963-3.885 13.793-18.431 13.793h-3.283v10.753zm0-30.238v18.251h2.65c7.288 0 8.824-5.602 8.824-11.896 0-7.771-2.048-11.656-7.65-11.656-3.162 0-3.824 1.054-3.824 5.301zM168.716 245.985c0 3.434 1.084 4.427 3.945 4.427v1.295c-1.566-.061-5.03-.241-8.222-.241-3.223 0-6.897.181-8.553.241v-1.295c2.891 0 3.945-.994 3.945-4.427v-35.146c0-3.705-.964-5.451-3.945-5.451v-1.295a41.39 41.39 0 0 0 3.824.181c3.434 0 6.445-.241 9.005-.843v42.554zM199.104 221.71c1.807 1.867 2.199 4.337 2.199 8.644v16.775c0 1.988.331 2.741 1.325 2.741.874 0 1.566-.512 2.259-1.054l.633 1.054c-1.867 1.506-3.916 2.259-7.047 2.259-4.518 0-5.903-2.349-5.933-5-2.108 3.463-5.632 5-9.096 5-4.608 0-7.8-2.53-7.8-7.017 0-4.458 2.952-6.957 8.674-9.065 4.548-1.717 8.102-2.891 8.102-5.542v-4.819c0-3.223-1.385-5.511-5.03-5.511-1.476 0-3.283.421-4.397 1.506 2.199.753 3.644 2.349 3.644 4.849 0 2.56-1.988 4.427-5.029 4.427-2.681 0-4.367-2.048-4.367-4.758 0-2.259 1.446-3.976 3.463-5.15 2.199-1.235 5.21-2.108 9.367-2.108 3.974-.001 7.046.722 9.033 2.769zm-6.686 11.325c-.572.934-1.747 1.747-3.825 3.042-2.168 1.596-4.187 3.614-4.187 7.318 0 3.403 1.656 4.789 3.855 4.789 1.506 0 2.861-.663 4.156-2.5v-12.649zM231.029 220.837c2.078 1.265 3.403 3.313 3.403 5.752 0 2.921-2.048 4.97-4.879 4.97-2.921 0-4.758-1.807-4.758-4.578 0-2.59 1.867-4.457 4.066-5.06-.632-.843-2.078-1.476-3.705-1.476-5.12 0-7.8 6.234-7.8 14.607 0 9.577 4.096 12.438 8.162 12.438 2.289 0 5.572-.903 8.072-5.029l1.084.392c-1.416 4.608-5.21 9.728-12.258 9.728-8.041 0-14.366-5.09-14.366-16.655 0-11.143 6.505-16.986 15.239-16.986 3.192 0 5.963.783 7.74 1.897zM264.127 242.552l1.114.421c-1.476 4.638-5.511 9.607-12.348 9.607-8.312 0-14.215-5.24-14.215-16.504 0-11.445 6.325-17.137 15.089-17.137 7.198 0 11.595 4.036 11.595 13.703h-17.257c-.09.904-.12 1.928-.12 2.921 0 8.583 4.126 11.926 8.041 11.926 2.47.002 5.602-.842 8.101-4.937zm-16.203-11.083h9.668c.12-6.023-1.175-11.204-4.187-11.204-2.77 0-4.968 3.222-5.481 11.204zM288.523 220.837c.422.271.783.421 1.113.421.723 0 1.235-.723 1.446-2.259h1.325c-.211 2.349-.271 5.361-.271 10.842h-1.295c-.633-4.548-2.65-9.547-7.921-9.547-2.379 0-4.187 1.446-4.187 3.976 0 3.705 3.795 5.752 7.59 8.583 4.127 3.042 7.379 5.692 7.379 10.571 0 5.632-5.33 9.155-11.686 9.155-2.47 0-4.396-.542-5.782-1.295-1.114-.572-1.987-1.024-2.861-1.295-.091-.03-.181-.06-.271-.06-.693 0-1.205.873-1.506 2.198h-1.295c.181-2.65.241-6.083.241-12.318h1.325c.753 6.686 3.132 11.354 8.313 11.354 2.138 0 4.337-1.234 4.337-4.397 0-3.614-2.681-5.632-6.234-8.403-4.035-3.162-7.74-5.963-7.74-10.932 0-5.481 5-8.493 10.602-8.493 3.462.002 6.173 1.116 7.378 1.899z"/>
    </g>
    <g fill="#FFF">
        <path d="M30.007 291.667h-.409l.058-1.398v-8.943c0-.527-.03-.953-.091-1.275-.061-.324-.116-.527-.166-.61a1.881 1.881 0 0 0-.229-.285l.152-.409 3.759-.095a5.924 5.924 0 0 1 1.832.21c.542.158.974.376 1.298.656.323.279.571.589.742.927.171.341.256.697.256 1.072 0 1.052-.641 1.974-1.921 2.768 1.839.551 2.759 1.673 2.759 3.368 0 1.225-.45 2.201-1.35 2.926-.901.726-2.113 1.088-3.635 1.088h-3.055zm2.741-6.603l-.391-.02c-.076 2.322-.06 4.152.048 5.49h.836c.787 0 1.387-.219 1.798-.656.413-.438.619-.965.619-1.58 0-1.022-.274-1.806-.823-2.356-.548-.546-1.244-.84-2.087-.878zm-.305-5.128v.447c0 .362-.017.96-.052 1.793a48.392 48.392 0 0 0-.052 1.775h.667c.514 0 .948.038 1.303.114.183-.209.338-.509.461-.9.124-.389.186-.753.186-1.089 0-.595-.18-1.11-.538-1.541-.358-.43-.829-.637-1.412-.618l-.563.019zM43.423 287.034c0 .583.085 1.099.257 1.546.171.446.404.8.699 1.061s.62.454.975.584c.356.13.733.196 1.133.196.52 0 1.016-.104 1.488-.31a2.99 2.99 0 0 0 1.185-.922c.317-.411.479-.872.485-1.386l.058-6.583c.006-.528-.048-.94-.163-1.243a3.098 3.098 0 0 0-.484-.843l.181-.409c.094-.063.284-.125.57-.185.285-.06.53-.09.732-.09.38 0 .672.08.875.238-.158 3.596-.238 6.473-.238 8.627 0 .762-.14 1.44-.418 2.034a3.784 3.784 0 0 1-1.166 1.446 5.384 5.384 0 0 1-1.736.842 7.929 7.929 0 0 1-2.188.285 5.78 5.78 0 0 1-1.818-.285 5.172 5.172 0 0 1-1.569-.832c-.471-.365-.844-.852-1.124-1.461-.279-.609-.418-1.297-.418-2.065l.01-2.854c.006-1.77.009-2.844.009-3.225 0-.286-.009-.534-.028-.749a3.128 3.128 0 0 0-.081-.513 2.256 2.256 0 0 0-.125-.352 1.16 1.16 0 0 0-.146-.249 2.124 2.124 0 0 1-.153-.204l.163-.409.228-.066a6.66 6.66 0 0 1 .671-.138 5.19 5.19 0 0 1 .832-.072c.654 0 1.155.086 1.504.257-.133 2.605-.2 5.379-.2 8.329zM54.858 291.667c.025-.862.038-4.352.038-10.464 0-.35-.017-.648-.048-.894a2.396 2.396 0 0 0-.123-.558c-.051-.124-.106-.24-.167-.348s-.123-.197-.186-.267l.152-.409.228-.066c.158-.044.382-.091.671-.138a5.19 5.19 0 0 1 .832-.072c.654 0 1.155.086 1.504.257-.133 2.372-.2 4.944-.2 7.716 0 3.159.079 4.906.238 5.242h-2.939zM61.5 291.667c.025-.862.038-4.352.038-10.464 0-.35-.016-.648-.048-.894a2.337 2.337 0 0 0-.124-.558 3.304 3.304 0 0 0-.167-.348 1.508 1.508 0 0 0-.186-.267l.152-.409.229-.066c.158-.044.381-.091.67-.138.289-.047.566-.072.833-.072.653 0 1.154.086 1.502.257-.133 2.372-.2 4.944-.2 7.716 0 1.922.022 3.249.067 3.978h1.941c.481 0 .946-.102 1.394-.305.447-.204.7-.447.757-.732h.466c.146.355.19.759.133 1.213-.056.453-.193.816-.409 1.088H61.5zM75.447 291.667h-4.5c.025-.443.038-.78.038-1.008v-9.201c0-.349-.006-.634-.02-.855a3.965 3.965 0 0 0-.133-.767 1.84 1.84 0 0 0-.333-.7l.152-.409 4.72-.095a7.035 7.035 0 0 1 1.897.22 6.1 6.1 0 0 1 1.727.742 5.796 5.796 0 0 1 1.408 1.228c.4.482.716 1.065.946 1.75.231.685.348 1.43.348 2.235 0 .965-.148 1.867-.447 2.708a6.627 6.627 0 0 1-1.25 2.178 5.693 5.693 0 0 1-1.979 1.446c-.784.352-1.642.528-2.574.528zm.229-1.265c.387 0 .764-.102 1.132-.305a3.422 3.422 0 0 0 1.003-.866c.301-.375.544-.857.728-1.451a6.583 6.583 0 0 0 .275-1.957c0-1.097-.191-2.096-.575-2.996-.383-.9-.908-1.604-1.575-2.111-.666-.508-1.398-.75-2.197-.723l-.676.018c0 .185-.017 1.134-.052 2.849a207.016 207.016 0 0 0-.052 3.917c0 1.186.022 2.393.067 3.625h1.922zM84.467 291.667c.025-.862.038-4.352.038-10.464 0-.35-.016-.648-.047-.894a2.337 2.337 0 0 0-.124-.558 3.116 3.116 0 0 0-.166-.348 1.457 1.457 0 0 0-.186-.267l.151-.409.229-.066a6.66 6.66 0 0 1 .671-.138c.289-.047.565-.072.833-.072.654 0 1.154.086 1.503.257-.134 2.372-.2 4.944-.2 7.716 0 3.159.08 4.906.238 5.242h-2.94zM100.849 286.815v.01c0 .006.002.001.005-.015.004-.016.007-.064.01-.148.003-.082.005-.195.005-.337s0-.357.004-.642l.009-1c.003-.379.005-.867.005-1.464v-1.997c0-.882-.215-1.577-.646-2.085l.18-.409c.095-.063.287-.125.572-.185s.529-.09.73-.09c.381 0 .674.08.877.238-.152 3.45-.229 6.536-.229 9.258 0 1.464.032 2.705.096 3.719h-1.695l-7.25-7.991-.352-.542c-.241-.361-.391-.615-.448-.762.038.224.057.54.057.952 0 .317-.006.771-.019 1.36a66.05 66.05 0 0 0-.019 1.37c0 2.722.063 4.593.19 5.614h-1.712v-.314c.013-1.687.019-4.004.019-6.954v-3.254c0-.507-.038-.899-.114-1.18a2.413 2.413 0 0 0-.428-.828l.151-.409c.146-.095.417-.175.809-.237a3.74 3.74 0 0 1 1.046-.038c.401.482 1.679 1.917 3.835 4.305a599.805 599.805 0 0 0 3.663 4.039c.172.185.346.481.524.895l.276.628-.077-.628a9.115 9.115 0 0 1-.074-.879zM112.028 290.497c.229 0 .545-.036.952-.106l.609-.104v-1.483c0-.462-.03-.84-.091-1.132-.059-.291-.114-.476-.162-.551a3.48 3.48 0 0 0-.271-.361l.152-.43.21-.066c.146-.05.355-.098.631-.142.276-.045.546-.068.814-.068.596 0 1.072.086 1.427.258a82.322 82.322 0 0 0-.144 3.139l-.018 1.788c-.26 0-.565.038-.914.114-.355.071-.726.146-1.112.229-.387.083-.866.161-1.438.233-.571.073-1.09.109-1.561.109-1.889 0-3.359-.586-4.408-1.759-1.052-1.173-1.575-2.731-1.575-4.671 0-2.062.609-3.744 1.831-5.043 1.221-1.3 2.818-1.95 4.791-1.95.918 0 1.766.164 2.539.495.774.329 1.279.736 1.514 1.218 0 .247-.14.597-.419 1.051-.279.454-.624.771-1.036.956l-.372-.295c0-.108-.037-.243-.11-.408a2.721 2.721 0 0 0-.328-.539 3.591 3.591 0 0 0-.504-.538 2.56 2.56 0 0 0-.685-.414 2.116 2.116 0 0 0-.828-.167c-.583 0-1.101.133-1.555.396a3.001 3.001 0 0 0-1.089 1.081 5.577 5.577 0 0 0-.619 1.525 7.399 7.399 0 0 0-.209 1.793c0 .622.052 1.218.152 1.789.101.571.259 1.104.476 1.599.215.495.477.923.785 1.285.308.36.679.646 1.118.855.439.208.92.314 1.447.314zM127.984 291.667h-2.881l.018-.761v-9.627c0-1.016-.162-1.724-.485-2.123l.152-.409 4.167-.095c.438-.005.862.028 1.275.105.413.076.818.212 1.219.408.398.197.746.445 1.041.743.295.298.533.683.713 1.155a4.46 4.46 0 0 1 .272 1.605c0 .83-.25 1.573-.747 2.225-.498.654-1.157 1.151-1.975 1.495.177.139.346.301.504.485l2.455 3.007 1.636 1.788h-3.425a8.178 8.178 0 0 0-.609-1.098c-.254-.39-.548-.792-.885-1.208a35.202 35.202 0 0 0-.899-1.074c-.264-.302-.58-.657-.946-1.062a4.321 4.321 0 0 0-.39-.409c-.044-.006-.113-.012-.205-.02a2.59 2.59 0 0 1-.205-.018c0 2.612.067 4.242.2 4.888zm-.181-8.439l-.019 2.378c.159.039.401.058.723.058.799 0 1.415-.249 1.845-.742.432-.495.648-1.098.648-1.808a4.29 4.29 0 0 0-.167-1.208 3.447 3.447 0 0 0-.49-1.032 2.16 2.16 0 0 0-.86-.718 2.484 2.484 0 0 0-1.223-.22l-.39.019c-.019.203-.041 1.295-.067 3.273zM142.046 291.667h-4.986l.019-1.427v-8.914a11.157 11.157 0 0 0-.076-1.199c-.038-.273-.079-.459-.123-.557a2.909 2.909 0 0 0-.267-.434l.153-.409h3.253l3.587-.056c.221.329.352.708.394 1.137a2.78 2.78 0 0 1-.147 1.222h-.447c-.057-.279-.27-.517-.638-.714a2.704 2.704 0 0 0-1.169-.322l-1.712-.077a80.61 80.61 0 0 0-.125 4.462h2.438c.195 0 .347-.002.455-.01.107-.006.24-.038.395-.095.155-.058.287-.14.396-.248.045.242.066.462.066.666 0 .807-.593 1.208-1.779 1.208-.242 0-.585-.007-1.027-.02a41.837 41.837 0 0 0-.962-.019c-.006.845.003 1.77.029 2.779l.028 1.522h3.417c.444 0 .767-.137.97-.409.039.272.057.488.057.647 0 .481-.174.813-.523.994s-.909.273-1.676.273zM147.108 291.667c.025-.862.038-4.352.038-10.464 0-.35-.016-.648-.048-.894a2.289 2.289 0 0 0-.124-.558 3.118 3.118 0 0 0-.167-.348 1.41 1.41 0 0 0-.186-.267l.152-.409.229-.066c.16-.044.383-.091.671-.138.289-.047.566-.072.833-.072.652 0 1.154.086 1.503.257a137.379 137.379 0 0 0-.201 7.716c0 1.922.022 3.249.067 3.978h1.941c.481 0 .946-.102 1.394-.305.448-.204.7-.447.756-.732h.467c.146.355.19.759.133 1.213-.056.453-.193.816-.41 1.088h-7.048zM162.549 280.051l3.471 9.942c.256.729.502 1.287.745 1.674h-3.122l-.039-.314a2.982 2.982 0 0 0-.153-.636l-1.151-3.272h-4.462l-1.389 3.909-.057.314h-1.845l4.385-11.246a2.364 2.364 0 0 1 1.081-1.478c.554-.346 1.25-.548 2.087-.605.129.658.276 1.229.449 1.712zm-.713 6.098l-1.761-5.005-1.789 5.005h3.55zM170.769 281.202c0-.501-.031-.904-.095-1.208h-1.712c-.463 0-.852.097-1.167.294-.312.196-.492.443-.537.741h-.446a5.343 5.343 0 0 1-.139-.842 2.435 2.435 0 0 1 .092-.789c.075-.289.214-.556.417-.805l2.969.133h3.93l2.967-.133c.205.249.343.516.418.805.077.288.106.55.087.789-.02.238-.066.518-.143.842h-.447c-.039-.298-.214-.545-.528-.741-.313-.197-.703-.294-1.167-.294h-1.71c-.076 1.711-.114 3.855-.114 6.43 0 3.172.076 4.919.229 5.242h-2.94c.023-.861.036-4.352.036-10.464zM179.512 291.667c.024-.862.039-4.352.039-10.464 0-.35-.016-.648-.048-.894a2.289 2.289 0 0 0-.124-.558 3.116 3.116 0 0 0-.166-.348 1.456 1.456 0 0 0-.184-.267l.151-.409.227-.066a6.69 6.69 0 0 1 .67-.138 5.19 5.19 0 0 1 .832-.072c.655 0 1.156.086 1.503.257-.132 2.372-.2 4.944-.2 7.716 0 3.159.081 4.906.238 5.242h-2.938zM193.627 278.919a5.252 5.252 0 0 1 1.769 1.207c.51.527.914 1.206 1.208 2.036.294.831.442 1.763.442 2.797-.032 1.319-.318 2.502-.86 3.548a6.206 6.206 0 0 1-2.34 2.494c-1.019.615-2.194.922-3.526.922a4.81 4.81 0 0 1-1.564-.261 4.86 4.86 0 0 1-1.452-.804 5.774 5.774 0 0 1-1.199-1.299c-.341-.504-.615-1.112-.819-1.827a8.419 8.419 0 0 1-.304-2.316c0-1.343.28-2.542.838-3.596.557-1.053 1.331-1.87 2.315-2.45.987-.579 2.099-.87 3.334-.87.77 0 1.488.138 2.158.419zm-.32 10.203c.554-.954.829-2.12.829-3.495a8.678 8.678 0 0 0-.462-2.874c-.309-.882-.719-1.578-1.231-2.088-.515-.51-1.067-.767-1.656-.767-.546 0-1.043.219-1.495.656-.451.438-.8 1.03-1.051 1.774-.251.747-.375 1.566-.375 2.459 0 .985.146 1.917.442 2.798.294.882.705 1.597 1.231 2.146s1.098.824 1.714.824c.818-.001 1.504-.479 2.054-1.433zM209.511 286.815v.01a.923.923 0 0 0 .014-.163c.003-.082.005-.195.005-.337s0-.357.005-.642l.01-1c.001-.379.003-.867.003-1.464v-1.997c0-.882-.214-1.577-.646-2.085l.18-.409c.095-.063.286-.125.571-.185s.529-.09.732-.09c.379 0 .672.08.875.238-.153 3.45-.229 6.536-.229 9.258 0 1.464.032 2.705.095 3.719h-1.694l-7.248-7.991-.353-.542c-.241-.361-.391-.615-.448-.762.039.224.057.54.057.952 0 .317-.006.771-.018 1.36-.013.591-.02 1.048-.02 1.37 0 2.722.063 4.593.19 5.614h-1.712v-.314c.013-1.687.019-4.004.019-6.954v-3.254c0-.507-.039-.899-.114-1.18a2.43 2.43 0 0 0-.428-.828l.151-.409c.146-.095.416-.175.81-.237a3.74 3.74 0 0 1 1.046-.038c.401.482 1.679 1.917 3.835 4.305a569.856 569.856 0 0 0 3.663 4.039c.172.185.346.481.523.895l.277.628-.078-.628a8.705 8.705 0 0 1-.073-.879zM217.339 291.923c-.949 0-1.757-.217-2.42-.651-.661-.434-.993-.94-.993-1.517 0-.298.104-.597.313-.895.119.419.509.774 1.165 1.065.655.292 1.276.438 1.861.438.265 0 .521-.026.764-.077.246-.05.483-.134.714-.251.232-.117.416-.288.552-.514.137-.225.204-.497.204-.813 0-.279-.104-.555-.315-.828a3.818 3.818 0 0 0-.808-.766c-.33-.238-.695-.483-1.098-.737a22.59 22.59 0 0 1-1.21-.818 9.41 9.41 0 0 1-1.097-.928c-.33-.326-.6-.708-.809-1.146a3.18 3.18 0 0 1-.314-1.389c0-.45.083-.889.253-1.318a3.72 3.72 0 0 1 .731-1.165c.321-.349.737-.63 1.251-.841a4.466 4.466 0 0 1 1.722-.32c.414 0 .801.033 1.167.095.363.063.703.162 1.017.296.314.132.544.235.69.308.146.073.336.179.571.319.058.146.085.374.085.686 0 .685-.196 1.224-.589 1.615l-.449-.103a2.472 2.472 0 0 0-.693-1.085 3.095 3.095 0 0 0-1.017-.647 2.953 2.953 0 0 0-1-.19c-.267 0-.521.04-.766.119-.245.079-.463.23-.657.451-.193.222-.29.505-.29.847 0 .331.11.645.332.948.222.3.514.575.873.822.355.248.751.499 1.183.757.433.257.861.533 1.291.826.427.294.821.608 1.18.938.357.33.648.723.869 1.176a3.3 3.3 0 0 1 .334 1.471c0 1.064-.431 1.968-1.289 2.71-.86.741-1.962 1.112-3.308 1.112zM235.741 286.424c0 3.172.079 4.919.238 5.242h-2.864a7.798 7.798 0 0 1-.076-1.227c0-.343.003-1.036.009-2.079.007-1.044.01-1.896.01-2.556h-5.794v.733c0 3.083.079 4.792.238 5.127h-2.94c.026-.862.039-4.352.039-10.464 0-.35-.016-.648-.048-.894a2.198 2.198 0 0 0-.124-.558 2.802 2.802 0 0 0-.167-.348 1.456 1.456 0 0 0-.184-.267l.151-.409.23-.066c.158-.044.38-.091.669-.138a5.18 5.18 0 0 1 .832-.072c.653 0 1.155.086 1.503.257a232.058 232.058 0 0 0-.199 5.766h5.794c.013-.946.02-2.036.02-3.272 0-.452-.032-.825-.095-1.123-.065-.299-.123-.494-.178-.586a3.019 3.019 0 0 0-.262-.357l.162-.409.229-.066c.153-.044.37-.091.658-.138a5.07 5.07 0 0 1 .826-.072c.648 0 1.155.086 1.524.257-.134 3.055-.201 5.627-.201 7.719zM239.68 291.667c.024-.862.037-4.352.037-10.464 0-.35-.016-.648-.046-.894a2.387 2.387 0 0 0-.124-.558 3.304 3.304 0 0 0-.167-.348 1.41 1.41 0 0 0-.185-.267l.153-.409.227-.066a6.66 6.66 0 0 1 .673-.138 5.17 5.17 0 0 1 .832-.072c.653 0 1.153.086 1.503.257a137.379 137.379 0 0 0-.201 7.716c0 3.159.08 4.906.238 5.242h-2.94zM249.184 291.667h-2.882l.018-.761V287.483v.017V281.193c0-1.015-.161-1.722-.483-2.124l.151-.409 4.167-.095c.438-.005.862.029 1.276.104.412.078.815.215 1.213.415.395.2.742.451 1.041.751.298.302.536.688.72 1.16.178.473.27 1.007.27 1.605 0 .792-.229 1.508-.686 2.143a4.508 4.508 0 0 1-1.817 1.48 5.754 5.754 0 0 1-2.446.524c-.151 0-.399-.012-.742-.038 0 2.682.067 4.312.2 4.958zm-.18-8.439l-.02 2.378c.16.039.399.058.725.058.798 0 1.413-.249 1.845-.742.43-.495.647-1.098.647-1.808 0-.425-.056-.83-.167-1.213a3.512 3.512 0 0 0-.489-1.037 2.22 2.22 0 0 0-.866-.723 2.442 2.442 0 0 0-1.218-.224l-.391.019c-.019.196-.04 1.294-.066 3.292zM259.823 291.923c-.953 0-1.759-.217-2.424-.651-.661-.434-.993-.94-.993-1.517 0-.298.104-.597.314-.895.121.419.508.774 1.165 1.065.657.292 1.276.438 1.86.438.268 0 .522-.026.767-.077.245-.05.481-.134.712-.251a1.34 1.34 0 0 0 .552-.514c.137-.225.206-.497.206-.813 0-.279-.104-.555-.315-.828a3.866 3.866 0 0 0-.808-.766c-.33-.238-.697-.483-1.101-.737a23.384 23.384 0 0 1-1.208-.818 9.505 9.505 0 0 1-1.098-.928 4.04 4.04 0 0 1-.808-1.146 3.18 3.18 0 0 1-.314-1.389c0-.45.082-.889.251-1.318.167-.429.412-.817.732-1.165.32-.349.739-.63 1.25-.841a4.472 4.472 0 0 1 1.724-.32c.412 0 .802.033 1.165.095.366.063.705.162 1.019.296.314.132.544.235.689.308.146.073.338.179.571.319.057.146.085.374.085.686 0 .685-.196 1.224-.589 1.615l-.449-.103a2.466 2.466 0 0 0-.694-1.085 3.064 3.064 0 0 0-1.017-.647 2.943 2.943 0 0 0-.999-.19c-.267 0-.521.04-.766.119a1.47 1.47 0 0 0-.657.451c-.195.222-.292.505-.292.847 0 .331.111.645.335.948.222.3.512.575.871.822s.751.499 1.184.757c.431.257.861.533 1.289.826.428.294.821.608 1.18.938.359.33.647.723.87 1.176.223.454.333.943.333 1.471 0 1.064-.431 1.968-1.289 2.71-.857.741-1.96 1.112-3.303 1.112z"/>
    </g>
</svg>