<?xml version="1.0" encoding="utf-8"?>
<!-- Generator: Adobe Illustrator 15.0.0, SVG Export Plug-In . SVG Version: 6.00 Build 0)  -->
<!DOCTYPE svg PUBLIC "-//W3C//DTD SVG 1.1//EN" "http://www.w3.org/Graphics/SVG/1.1/DTD/svg11.dtd">
<svg version="1.1" id="Layer_1" xmlns="http://www.w3.org/2000/svg" xmlns:xlink="http://www.w3.org/1999/xlink" x="0px" y="0px"
	 width="17.5px" height="23.5px" viewBox="0 0 17.5 23.5" enable-background="new 0 0 17.5 23.5" xml:space="preserve">
<g>
	<path d="M8.75,23.5C6.075,23.5,0,14.929,0,8.75C0,3.925,3.925,0,8.75,0c4.825,0,8.75,3.925,8.75,8.75
		C17.5,14.929,11.425,23.5,8.75,23.5z M8.75,1.5C4.752,1.5,1.5,4.752,1.5,8.75C1.5,14.718,7.472,22,8.75,22
		C10.028,22,16,14.718,16,8.75C16,4.752,12.748,1.5,8.75,1.5z"/>
</g>
<g>
	<path d="M8.75,13.5C6.131,13.5,4,11.369,4,8.75S6.131,4,8.75,4s4.75,2.131,4.75,4.75S11.369,13.5,8.75,13.5z M8.75,5.5
		C6.958,5.5,5.5,6.958,5.5,8.75S6.958,12,8.75,12S12,10.542,12,8.75S10.542,5.5,8.75,5.5z"/>
</g>
</svg>
