<?xml version="1.0" encoding="utf-8"?>
<!-- Generator: Adobe Illustrator 15.0.0, SVG Export Plug-In . SVG Version: 6.00 Build 0)  -->
<!DOCTYPE svg PUBLIC "-//W3C//DTD SVG 1.1//EN" "http://www.w3.org/Graphics/SVG/1.1/DTD/svg11.dtd">
<svg version="1.1" id="Layer_1" xmlns="http://www.w3.org/2000/svg" xmlns:xlink="http://www.w3.org/1999/xlink" x="0px" y="0px"
	 width="23.5px" height="23.5px" viewBox="0 0 23.5 23.5" enable-background="new 0 0 23.5 23.5" xml:space="preserve">
<g>
	<path d="M22.75,23.5h-22C0.336,23.5,0,23.164,0,22.75v-14C0,8.336,0.336,8,0.75,8h22c0.414,0,0.75,0.336,0.75,0.75v14
		C23.5,23.164,23.164,23.5,22.75,23.5z M1.5,22H22V9.5H1.5V22z"/>
</g>
<g>
	<path d="M11.751,16.5c-0.248,0-0.491-0.123-0.634-0.347c-0.223-0.35-0.119-0.813,0.23-1.036l11-7
		c0.347-0.223,0.813-0.12,1.035,0.23c0.223,0.35,0.119,0.813-0.23,1.036l-11,7C12.028,16.462,11.889,16.5,11.751,16.5z"/>
</g>
<g>
	<path d="M11.749,16.5c-0.138,0-0.276-0.038-0.401-0.117l-11-7c-0.35-0.223-0.453-0.686-0.23-1.036
		c0.222-0.35,0.685-0.453,1.035-0.23l11,7c0.35,0.223,0.453,0.686,0.23,1.036C12.24,16.377,11.997,16.5,11.749,16.5z"/>
</g>
<g>
	<path d="M0.751,9.5c-0.232,0-0.461-0.107-0.607-0.309c-0.244-0.335-0.17-0.804,0.165-1.047l11-8
		c0.338-0.245,0.806-0.168,1.048,0.166c0.244,0.335,0.17,0.804-0.165,1.047l-11,8C1.058,9.454,0.903,9.5,0.751,9.5z"/>
</g>
<g>
	<path d="M22.749,9.5c-0.152,0-0.307-0.046-0.44-0.144l-11-8c-0.335-0.244-0.409-0.712-0.165-1.047
		c0.243-0.334,0.71-0.41,1.048-0.166l11,8c0.335,0.244,0.409,0.712,0.165,1.047C23.21,9.393,22.981,9.5,22.749,9.5z"/>
</g>
</svg>
