<?xml version="1.0" encoding="utf-8"?>
<!-- Generator: Adobe Illustrator 15.0.0, SVG Export Plug-In . SVG Version: 6.00 Build 0)  -->
<!DOCTYPE svg PUBLIC "-//W3C//DTD SVG 1.1//EN" "http://www.w3.org/Graphics/SVG/1.1/DTD/svg11.dtd">
<svg version="1.1" id="Layer_1" xmlns="http://www.w3.org/2000/svg" xmlns:xlink="http://www.w3.org/1999/xlink" x="0px" y="0px"
	 width="34.038px" height="34.021px" viewBox="0 0 34.038 34.021" enable-background="new 0 0 34.038 34.021" xml:space="preserve">
<g>
	<path d="M16.789,21.014H6.48c-0.276,0-0.5-0.224-0.5-0.5V6.172c0-0.276,0.224-0.5,0.5-0.5s0.5,0.224,0.5,0.5v13.842h9.309v-5.85
		c0-0.276,0.224-0.5,0.5-0.5s0.5,0.224,0.5,0.5v6.35C17.289,20.79,17.065,21.014,16.789,21.014z"/>
</g>
<g>
	<path d="M13.538,17.588H9.731c-0.276,0-0.5-0.224-0.5-0.5v-3.807c0-0.276,0.224-0.5,0.5-0.5h3.807c0.276,0,0.5,0.224,0.5,0.5v3.807
		C14.038,17.364,13.814,17.588,13.538,17.588z M10.231,16.588h2.807v-2.807h-2.807V16.588z"/>
</g>
<g>
	<path d="M19.313,13.506c-0.103,0-0.205-0.037-0.292-0.117c-0.081-0.073-0.157-0.19-0.186-0.303l-7.27-6.494l-7.231,6.459
		c-0.021,0.106-0.075,0.203-0.156,0.276c-0.205,0.185-0.557,0.199-0.741-0.005c-0.079-0.088-0.128-0.191-0.142-0.294
		c-0.016-0.054-0.023-0.111-0.021-0.168C3.28,12.726,3.34,12.6,3.441,12.51l7.723-6.898c0.139-0.124,0.328-0.157,0.496-0.1
		c0.12-0.002,0.227,0.028,0.309,0.1l7.722,6.898c0.1,0.089,0.16,0.215,0.167,0.35c0.004,0.092-0.017,0.183-0.061,0.263
		c-0.017,0.074-0.05,0.144-0.103,0.202C19.587,13.441,19.45,13.506,19.313,13.506z"/>
</g>
<g>
	<path d="M22.631,34.021H0.5c-0.276,0-0.5-0.224-0.5-0.5V0.5C0,0.224,0.224,0,0.5,0h22.131c0.276,0,0.5,0.224,0.5,0.5v33.021
		C23.131,33.798,22.907,34.021,22.631,34.021z M1,33.021h21.131V1H1V33.021z"/>
</g>
<g>
	<path d="M17.762,26.369H5.369c-0.276,0-0.5-0.224-0.5-0.5s0.224-0.5,0.5-0.5h12.393c0.276,0,0.5,0.224,0.5,0.5
		S18.038,26.369,17.762,26.369z"/>
</g>
<g>
	<path d="M17.762,29.713H5.369c-0.276,0-0.5-0.224-0.5-0.5s0.224-0.5,0.5-0.5h12.393c0.276,0,0.5,0.224,0.5,0.5
		S18.038,29.713,17.762,29.713z"/>
</g>
<g>
	<path d="M28.691,28.861c-1.252,0-2.6-1.176-2.6-3.758V3.314c0-0.276,0.224-0.5,0.5-0.5h4.199c0.276,0,0.5,0.224,0.5,0.5v21.789
		C31.291,27.686,29.943,28.861,28.691,28.861z M27.091,3.814v21.289c0,3.621,3.199,3.621,3.199,0V3.814H27.091z"/>
</g>
<g>
	<path d="M33.522,15.385C33.522,15.385,33.522,15.385,33.522,15.385c-0.277,0-0.5-0.225-0.5-0.501l0.014-7.638h-6.471
		c-0.276,0-0.5-0.224-0.5-0.5s0.224-0.5,0.5-0.5h6.972c0.133,0,0.26,0.053,0.354,0.147c0.094,0.094,0.146,0.221,0.146,0.354
		l-0.015,8.139C34.022,15.162,33.798,15.385,33.522,15.385z"/>
</g>
<g>
	<path d="M28.62,31.207c-0.276,0-0.5-0.224-0.5-0.5v-2.348c0-0.276,0.224-0.5,0.5-0.5s0.5,0.224,0.5,0.5v2.348
		C29.12,30.983,28.896,31.207,28.62,31.207z"/>
</g>
</svg>
