<?xml version="1.0" encoding="utf-8"?>
<!-- Generator: Adobe Illustrator 15.0.0, SVG Export Plug-In . SVG Version: 6.00 Build 0)  -->
<!DOCTYPE svg PUBLIC "-//W3C//DTD SVG 1.1//EN" "http://www.w3.org/Graphics/SVG/1.1/DTD/svg11.dtd">
<svg version="1.1" id="Layer_1" xmlns="http://www.w3.org/2000/svg" xmlns:xlink="http://www.w3.org/1999/xlink" x="0px" y="0px"
	 width="35.079px" height="35.128px" viewBox="0 0 35.079 35.128" enable-background="new 0 0 35.079 35.128" xml:space="preserve">
<g>
	<path d="M17.516,19.14c-0.011,0-0.021,0-0.031,0c-2.537-0.124-5.036-2.389-6.108-5.467c-0.822,0.066-1.552-0.522-1.677-1.32
		L9.268,9.575C9.156,8.854,9.557,8.169,10.2,7.894c-0.052-0.294-0.078-0.592-0.078-0.892V5.979c0-2.866,2.332-5.197,5.198-5.197
		h0.05C15.592,0.394,16.106,0,17.269,0c0.873,0,1.946,0.225,3.021,0.632c0.447,0.169,0.875,0.363,1.272,0.575
		c1.892,0.788,3.15,2.672,3.15,4.772v1.022c0,0.301-0.026,0.599-0.077,0.893c0.642,0.275,1.043,0.959,0.932,1.68l-0.432,2.777
		c-0.115,0.734-0.746,1.292-1.481,1.325c-1.073,3.074-3.574,5.339-6.107,5.463C17.538,19.14,17.527,19.14,17.516,19.14z
		 M11.83,12.298c0.285,0,0.544,0.189,0.624,0.472c0.79,2.774,2.962,4.946,5.063,5.069c2.091-0.123,4.26-2.283,5.055-5.042
		c0.092-0.316,0.405-0.516,0.726-0.462l0.252,0.04c0.003,0,0.006,0,0.008,0c0.165,0,0.275-0.096,0.295-0.223l0.432-2.776
		c0.022-0.143-0.079-0.282-0.223-0.304l-0.312-0.048c-0.188-0.029-0.354-0.139-0.453-0.301c-0.101-0.162-0.124-0.359-0.066-0.54
		c0.122-0.38,0.184-0.778,0.184-1.181V5.979c0-1.575-0.944-2.988-2.407-3.6c-0.403-0.212-0.78-0.383-1.176-0.532
		C18.912,1.5,17.978,1.3,17.269,1.3c-0.521,0-0.746,0.109-0.783,0.148c0.012,0.18-0.038,0.326-0.161,0.458
		c-0.123,0.131-0.283,0.176-0.463,0.176H15.32c-2.149,0-3.897,1.749-3.897,3.897v1.022c0,0.401,0.062,0.798,0.185,1.181
		c0.058,0.181,0.034,0.378-0.066,0.54c-0.1,0.162-0.266,0.271-0.454,0.301l-0.313,0.048c-0.142,0.022-0.243,0.161-0.221,0.304
		l0.432,2.777c0.02,0.128,0.133,0.225,0.263,0.225l0.482-0.072C11.762,12.301,11.796,12.298,11.83,12.298z"/>
</g>
<g>
	<path d="M28.23,32.376h-4.916c-0.359,0-0.65-0.291-0.65-0.65s0.291-0.65,0.65-0.65h4.916c0.359,0,0.65,0.291,0.65,0.65
		S28.589,32.376,28.23,32.376z"/>
</g>
<g>
	<path d="M20.165,35.127c-0.003,0-0.006,0-0.009,0c-0.31-0.005-0.572-0.227-0.63-0.53l-1.71-9.073
		c-0.022-0.119-0.011-0.242,0.032-0.355l1.147-2.957h-2.914l1.147,2.957c0.045,0.114,0.056,0.239,0.032,0.359l-1.759,9.073
		c-0.059,0.303-0.322,0.523-0.632,0.526c-0.29,0.017-0.576-0.213-0.642-0.515l-2.755-12.924C9.353,22.717,5.313,23.588,4,23.854
		c-1.003,0.203-2.7,0.937-2.7,2.396v0.779l0.812,7.351c0.04,0.357-0.218,0.678-0.575,0.718c-0.352,0.031-0.677-0.219-0.717-0.575
		l-0.815-7.422L0,26.251c0-2.012,1.879-3.293,3.742-3.67c2.801-0.569,6.504-1.533,7.723-2.376c0.081-0.056,0.174-0.093,0.271-0.108
		c0.341-0.053,0.761,0.155,0.833,0.492l2.266,10.628l1.115-5.753l-1.423-3.667c-0.078-0.2-0.052-0.425,0.069-0.603
		c0.121-0.177,0.321-0.283,0.536-0.283h4.813c0.215,0,0.415,0.105,0.536,0.283c0.121,0.177,0.147,0.402,0.07,0.602l-1.424,3.669
		l1.081,5.736l2.3-10.616c0.073-0.336,0.396-0.556,0.733-0.505l0.1,0.015c0.098,0.015,0.191,0.052,0.272,0.108
		c1.22,0.845,4.923,1.808,7.723,2.376c1.862,0.377,3.742,1.659,3.742,3.67v0.779l-0.82,7.493c-0.04,0.356-0.368,0.6-0.718,0.575
		c-0.356-0.04-0.614-0.36-0.575-0.718l0.816-7.422l-0.004-0.708c0-1.459-1.696-2.192-2.699-2.396
		c-1.313-0.266-5.356-1.139-7.479-2.167l-2.8,12.927C20.735,34.913,20.47,35.127,20.165,35.127z"/>
</g>
</svg>
