<?xml version="1.0" encoding="utf-8"?>
<!-- Generator: Adobe Illustrator 15.0.0, SVG Export Plug-In . SVG Version: 6.00 Build 0)  -->
<!DOCTYPE svg PUBLIC "-//W3C//DTD SVG 1.1//EN" "http://www.w3.org/Graphics/SVG/1.1/DTD/svg11.dtd">
<svg version="1.1" id="Layer_1" xmlns="http://www.w3.org/2000/svg" xmlns:xlink="http://www.w3.org/1999/xlink" x="0px" y="0px"
	 width="35.362px" height="35.314px" viewBox="0 0 35.362 35.314" enable-background="new 0 0 35.362 35.314" xml:space="preserve">
<g>
	<path d="M32.31,32.291c-0.172,0-0.338-0.069-0.459-0.19l-6.169-6.17c-0.124-0.124-0.192-0.291-0.19-0.465
		c0.001-0.175,0.073-0.341,0.198-0.462l2.441-2.363c0.254-0.247,0.662-0.244,0.912,0.007l6.13,6.13c0.254,0.254,0.254,0.666,0,0.92
		L32.769,32.1C32.647,32.221,32.482,32.291,32.31,32.291z M27.067,25.478l5.243,5.243l1.483-1.483l-5.218-5.219L27.067,25.478z"/>
</g>
<g>
	<path d="M21.433,26.935c-5.245,0-9.512-4.267-9.512-9.512c0-5.246,4.267-9.513,9.512-9.513s9.512,4.268,9.512,9.513
		C30.945,22.668,26.678,26.935,21.433,26.935z M21.433,9.21c-4.528,0-8.212,3.685-8.212,8.213c0,4.528,3.684,8.211,8.212,8.211
		s8.212-3.683,8.212-8.211C29.645,12.895,25.961,9.21,21.433,9.21z"/>
</g>
<g>
	<path d="M27.239,18.073c-0.359,0-0.65-0.291-0.65-0.65c0-2.843-2.313-5.157-5.156-5.157c-0.359,0-0.65-0.291-0.65-0.65
		s0.291-0.65,0.65-0.65c3.56,0,6.456,2.896,6.456,6.457C27.889,17.782,27.598,18.073,27.239,18.073z"/>
</g>
<g>
	<path d="M30.106,35.314H0.65c-0.359,0-0.65-0.291-0.65-0.65s0.291-0.65,0.65-0.65h29.457c0.359,0,0.65,0.291,0.65,0.65
		S30.465,35.314,30.106,35.314z"/>
</g>
<g>
	<path d="M3.707,35.314c-0.359,0-0.65-0.291-0.65-0.65V0.65C3.057,0.291,3.348,0,3.707,0h21.897c0.359,0,0.65,0.291,0.65,0.65v8.494
		c0,0.359-0.291,0.65-0.65,0.65s-0.65-0.291-0.65-0.65V1.3H4.357v33.364C4.357,35.023,4.066,35.314,3.707,35.314z"/>
</g>
<g>
	<path d="M25.604,35.314c-0.359,0-0.65-0.291-0.65-0.65v-9.381c0-0.359,0.291-0.65,0.65-0.65s0.65,0.291,0.65,0.65v9.381
		C26.254,35.023,25.963,35.314,25.604,35.314z"/>
</g>
<g>
	<path d="M16.674,34.888c-0.359,0-0.65-0.291-0.65-0.65v-5.531h-2.736v5.531c0,0.359-0.291,0.65-0.65,0.65s-0.65-0.291-0.65-0.65
		v-6.182c0-0.359,0.291-0.65,0.65-0.65h4.036c0.359,0,0.65,0.291,0.65,0.65v6.182C17.324,34.597,17.033,34.888,16.674,34.888z"/>
</g>
<g>
	<path d="M8.703,7.073c-0.359,0-0.65-0.291-0.65-0.65v-1.76c0-0.359,0.291-0.65,0.65-0.65s0.65,0.291,0.65,0.65v1.76
		C9.353,6.782,9.062,7.073,8.703,7.073z"/>
</g>
<g>
	<path d="M14.655,7.073c-0.359,0-0.65-0.291-0.65-0.65v-1.76c0-0.359,0.291-0.65,0.65-0.65s0.65,0.291,0.65,0.65v1.76
		C15.305,6.782,15.014,7.073,14.655,7.073z"/>
</g>
<g>
	<path d="M20.607,7.073c-0.359,0-0.65-0.291-0.65-0.65v-1.76c0-0.359,0.291-0.65,0.65-0.65s0.65,0.291,0.65,0.65v1.76
		C21.257,6.782,20.966,7.073,20.607,7.073z"/>
</g>
<g>
	<path d="M8.703,13.003c-0.359,0-0.65-0.291-0.65-0.65v-1.76c0-0.359,0.291-0.65,0.65-0.65s0.65,0.291,0.65,0.65v1.76
		C9.353,12.712,9.062,13.003,8.703,13.003z"/>
</g>
<g>
	<path d="M8.703,18.933c-0.359,0-0.65-0.291-0.65-0.65v-1.758c0-0.359,0.291-0.65,0.65-0.65s0.65,0.291,0.65,0.65v1.758
		C9.353,18.642,9.062,18.933,8.703,18.933z"/>
</g>
<g>
	<path d="M8.703,24.862c-0.359,0-0.65-0.291-0.65-0.65v-1.758c0-0.359,0.291-0.65,0.65-0.65s0.65,0.291,0.65,0.65v1.758
		C9.353,24.571,9.062,24.862,8.703,24.862z"/>
</g>
<g>
	<path d="M8.703,30.794c-0.359,0-0.65-0.291-0.65-0.65v-1.76c0-0.359,0.291-0.65,0.65-0.65s0.65,0.291,0.65,0.65v1.76
		C9.353,30.503,9.062,30.794,8.703,30.794z"/>
</g>
<g>
	<path d="M20.608,30.794c-0.359,0-0.65-0.291-0.65-0.65v-1.76c0-0.359,0.291-0.65,0.65-0.65s0.65,0.291,0.65,0.65v1.76
		C21.258,30.503,20.967,30.794,20.608,30.794z"/>
</g>
</svg>
