<?xml version="1.0" encoding="utf-8"?>
<!-- Generator: Adobe Illustrator 15.0.0, SVG Export Plug-In . SVG Version: 6.00 Build 0)  -->
<!DOCTYPE svg PUBLIC "-//W3C//DTD SVG 1.1//EN" "http://www.w3.org/Graphics/SVG/1.1/DTD/svg11.dtd">
<svg version="1.1" id="Layer_1" xmlns="http://www.w3.org/2000/svg" xmlns:xlink="http://www.w3.org/1999/xlink" x="0px" y="0px"
	 width="34.016px" height="33.905px" viewBox="103.446 59.582 34.016 33.905" enable-background="new 103.446 59.582 34.016 33.905"
	 xml:space="preserve">
<path d="M122.655,75.046h-5.106l1.072-12.885c0-1.416-1.164-2.58-2.593-2.58c-0.688,0-1.335,0.269-1.822,0.756
	c-0.497,0.497-0.771,1.166-0.77,1.883l1.069,12.826H109.4c-2.086,0-4.031,1.672-4.248,3.652l-1.706,14.789h25.162l-1.705-14.784
	C126.686,76.72,124.741,75.046,122.655,75.046z M114.202,62.189c0-1.021,0.819-1.84,1.825-1.84c0.989,0,1.825,0.815,1.827,1.779
	l-1.076,12.917h-1.503L114.202,62.189z M104.308,92.719l1.608-13.936c0.169-1.554,1.831-2.97,3.484-2.97h13.255
	c1.654,0,3.314,1.418,3.484,2.975l1.608,13.931H104.308z"/>
<path d="M122.103,77.256h-12.151c-1.469,0-2.413,0.923-2.588,2.532l-1.634,11.438l0.759,0.108l1.635-11.449
	c0.137-1.251,0.735-1.861,1.828-1.861h12.151c1.092,0,1.69,0.616,1.829,1.885l1.633,11.426l0.759-0.108l-1.631-11.413
	C124.516,78.185,123.572,77.256,122.103,77.256z"/>
<path d="M123.312,59.582l1.169,7.606v1.614c0,0.821,0.667,1.488,1.487,1.488h2.949l-0.008,0.175l-0.563,14.359
	c0,1.31,0.725,2.034,2.041,2.034c0.652,0,1.161-0.179,1.511-0.531c0.352-0.354,0.529-0.868,0.528-1.531l-0.569-14.506h2.948
	c0.821,0,1.488-0.667,1.488-1.488l0.002-1.64l1.167-7.58H123.312z M130.387,86.092c-0.881,0-1.273-0.386-1.274-1.251l0.572-14.55
	h1.404l0.57,14.521C131.66,85.712,131.28,86.092,130.387,86.092z M135.526,68.803c0,0.397-0.323,0.72-0.721,0.72h-8.837
	c-0.397,0-0.721-0.323-0.721-0.721v-1.273h10.283L135.526,68.803z M135.581,66.761l-10.394,0l-0.979-6.413h9.499l-0.493,4.934
	l0.764,0.076l0.501-5.01h2.089L135.581,66.761z"/>
</svg>
