<?xml version="1.0" encoding="utf-8"?>
<!-- Generator: Adobe Illustrator 15.0.0, SVG Export Plug-In . SVG Version: 6.00 Build 0)  -->
<!DOCTYPE svg PUBLIC "-//W3C//DTD SVG 1.1//EN" "http://www.w3.org/Graphics/SVG/1.1/DTD/svg11.dtd">
<svg version="1.1" id="Layer_1" xmlns="http://www.w3.org/2000/svg" xmlns:xlink="http://www.w3.org/1999/xlink" x="0px" y="0px"
	 width="24px" height="24px" viewBox="0 0 24 24" enable-background="new 0 0 24 24" xml:space="preserve">
<g>
	<path d="M12,24C5.383,24,0,18.617,0,12S5.383,0,12,0s12,5.383,12,12S18.617,24,12,24z M12,2C6.486,2,2,6.486,2,12s4.486,10,10,10
		s10-4.486,10-10S17.514,2,12,2z"/>
</g>
<g>
	<path d="M11,16c-0.256,0-0.512-0.098-0.707-0.293l-3-3c-0.391-0.391-0.391-1.023,0-1.414s1.023-0.391,1.414,0l3,3
		c0.391,0.391,0.391,1.023,0,1.414C11.512,15.902,11.256,16,11,16z"/>
</g>
<g>
	<path d="M11,16c-0.256,0-0.512-0.098-0.707-0.293c-0.391-0.391-0.391-1.023,0-1.414l6-6c0.391-0.391,1.023-0.391,1.414,0
		s0.391,1.023,0,1.414l-6,6C11.512,15.902,11.256,16,11,16z"/>
</g>
</svg>
