<svg version="1.1" fill="#ffa500" id="Layer_1" xmlns="http://www.w3.org/2000/svg" xmlns:xlink="http://www.w3.org/1999/xlink" x="0px" y="0px"
								 width="35.669px" height="32.386px" viewBox="0 0 35.669 32.386" enable-background="new 0 0 35.669 32.386" xml:space="preserve">
							<g>
								<path d="M30.831,19.212c-0.128,0-0.256-0.049-0.354-0.146c-0.195-0.195-0.195-0.513,0.001-0.707l2.217-2.213
									c3.679-3.676,1.675-8.538-1.159-11.585c-1.005-1.08-2.129-1.983-3.252-2.614c-1.624-0.911-6.163-1.953-9.077,0.884l-6.648,6.615
									c-0.404,0.402-0.275,0.644-0.076,0.845c0.711,0.719,3.004,1.077,4.401-0.3l1.676-1.652c1.355-1.229,2.852-0.776,4.299-0.34
									c1.625,0.492,3.305,1,5.207-0.501c0.217-0.171,0.532-0.134,0.702,0.083c0.171,0.217,0.134,0.531-0.083,0.702
									c-2.311,1.822-4.42,1.187-6.115,0.673c-1.49-0.451-2.446-0.684-3.322,0.109l-1.661,1.639c-1.792,1.766-4.717,1.399-5.813,0.291
									c-0.67-0.677-0.639-1.541,0.081-2.258l6.652-6.619c3.318-3.23,8.439-2.067,10.267-1.043c1.212,0.681,2.42,1.65,3.495,2.805
									c3.386,3.64,5.049,9.063,1.134,12.974l-2.217,2.213C31.087,19.163,30.959,19.212,30.831,19.212z"/>
							</g>
							<g>
								<path d="M4.938,18.165c-0.128,0-0.256-0.049-0.354-0.146l-2.213-2.211c-3.987-3.98-2.401-9.245,0.76-12.452
									c3.366-3.414,8.854-4.85,12.828-0.982l1.495,1.488c0.196,0.195,0.197,0.512,0.002,0.707c-0.195,0.196-0.513,0.195-0.707,0.002
									l-1.491-1.484C11.591-0.481,6.77,1.088,3.843,4.058c-2.825,2.866-4.27,7.544-0.766,11.043l2.214,2.211
									c0.195,0.195,0.195,0.512,0,0.707C5.194,18.116,5.065,18.165,4.938,18.165z"/>
							</g>
							<g>
								<path d="M29.498,23.55c-0.626,0-1.301-0.266-1.931-0.916l-4.015-4.138c-0.192-0.198-0.188-0.516,0.011-0.707
									c0.198-0.193,0.515-0.188,0.707,0.01l4.015,4.139c1.072,1.106,1.951,0.422,2.196,0.188c0.642-0.618,0.892-1.75,0.174-2.501
									l-8.565-8.981c-0.19-0.199-0.183-0.516,0.017-0.706c0.2-0.191,0.516-0.186,0.707,0.017l8.565,8.98
									c1.142,1.195,0.783,2.962-0.205,3.912C30.731,23.272,30.14,23.55,29.498,23.55z"/>
							</g>
							<g>
								<path d="M26.236,26.571c-0.629,0-1.258-0.226-1.77-0.751l-4.414-4.535c-0.192-0.198-0.188-0.515,0.01-0.707
									c0.198-0.193,0.515-0.188,0.707,0.01l4.414,4.535c0.699,0.718,1.79,0.492,2.441-0.14c0.268-0.261,1.056-1.199-0.058-2.35
									l-4.313-4.451c-0.192-0.198-0.188-0.515,0.011-0.707c0.198-0.191,0.515-0.188,0.707,0.012l4.314,4.451
									c1.31,1.352,0.962,2.863,0.037,3.762C27.77,26.235,27.003,26.571,26.236,26.571z"/>
							</g>
							<g>
								<path d="M22.711,29.274c-0.631,0-1.268-0.226-1.791-0.753l-2.204-2.223c-0.194-0.196-0.193-0.513,0.003-0.708
									c0.196-0.194,0.513-0.191,0.707,0.003l2.204,2.223c0.71,0.718,1.78,0.515,2.404-0.093c0.257-0.25,1.008-1.153-0.099-2.315
									c-0.19-0.2-0.183-0.517,0.018-0.707c0.199-0.189,0.515-0.184,0.707,0.018c1.295,1.36,0.969,2.85,0.071,3.722
									C24.202,28.955,23.461,29.274,22.711,29.274z"/>
							</g>
							<g>
								<path d="M16.193,32.386c-0.684,0-1.324-0.264-1.803-0.742l-0.235-0.233c-0.587-0.588-0.827-1.392-0.722-2.156
									c-0.855,0.23-1.831-0.016-2.471-0.655l-0.236-0.237c-0.478-0.478-0.742-1.118-0.743-1.801c0-0.116,0.008-0.231,0.022-0.345
									c-0.873,0.267-1.897,0.03-2.558-0.631l-0.236-0.236c-0.479-0.478-0.742-1.117-0.743-1.8c0-0.167,0.016-0.332,0.046-0.492
									c-0.839,0.192-1.771-0.056-2.39-0.675L3.89,22.146c-0.992-0.993-0.993-2.61,0-3.605l3.051-3.051c0.958-0.958,2.646-0.96,3.605,0
									l0.235,0.233c0.474,0.475,0.722,1.09,0.744,1.711l0.548-0.548c0.961-0.959,2.646-0.958,3.604,0l0.235,0.233
									c0.981,0.981,0.995,2.568,0.041,3.565c0.648,0.022,1.252,0.284,1.71,0.742l0.235,0.233c0.48,0.48,0.745,1.121,0.744,1.805
									c0,0.57-0.184,1.11-0.524,1.553c0.64,0.027,1.235,0.288,1.688,0.741l0.234,0.233c0.994,0.995,0.994,2.612,0.001,3.606l-2.046,2.045
									C17.517,32.122,16.877,32.386,16.193,32.386z M18.002,26.015c-0.416,0-0.804,0.16-1.095,0.451l-2.046,2.045
									c-0.604,0.604-0.604,1.587,0,2.191l0.235,0.233c0.581,0.582,1.612,0.581,2.19,0.001l2.046-2.045c0.603-0.604,0.603-1.588,0-2.191
									l-0.234-0.233C18.807,26.175,18.418,26.015,18.002,26.015z M15.861,21.683c-0.416,0-0.804,0.16-1.095,0.451l-3.332,3.33
									c-0.291,0.291-0.451,0.68-0.451,1.097c0,0.415,0.16,0.805,0.451,1.095l0.236,0.237c0.578,0.578,1.609,0.579,2.19-0.001l3.331-3.332
									c0.291-0.29,0.451-0.68,0.451-1.095c0-0.416-0.16-0.806-0.451-1.097l-0.235-0.233C16.665,21.843,16.276,21.683,15.861,21.683z
									 M13.875,17.142c-0.415,0-0.804,0.16-1.095,0.451L7.92,22.452c-0.291,0.291-0.451,0.68-0.45,1.096c0,0.416,0.16,0.804,0.45,1.094
									l0.237,0.236c0.578,0.58,1.61,0.58,2.19,0l4.859-4.859c0.604-0.604,0.604-1.587,0-2.191l-0.235-0.233
									C14.679,17.302,14.29,17.142,13.875,17.142z M8.743,15.746c-0.416,0-0.805,0.16-1.095,0.45l-3.05,3.051
									c-0.603,0.604-0.604,1.588,0,2.191l0.236,0.236c0.578,0.578,1.61,0.578,2.19,0l3.05-3.053c0.604-0.604,0.604-1.587,0-2.191
									l-0.234-0.233C9.548,15.906,9.159,15.746,8.743,15.746z"/>
							</g>
							</svg>