<svg version="1.1" fill="#a5adbc" id="Layer_1" xmlns="http://www.w3.org/2000/svg" xmlns:xlink="http://www.w3.org/1999/xlink" x="0px" y="0px"
								 width="22.85px" height="22.85px" viewBox="0 0 22.85 22.85" enable-background="new 0 0 22.85 22.85" xml:space="preserve">
  <g>
    <path d="M11.425,22.85C5.125,22.85,0,17.725,0,11.425S5.125,0,11.425,0S22.85,5.125,22.85,11.425S17.725,22.85,11.425,22.85z
      M11.425,0.85C5.594,0.85,0.85,5.594,0.85,11.425S5.594,22,11.425,22S22,17.256,22,11.425S17.256,0.85,11.425,0.85z"/>
  </g>
  <g>
    <path d="M10.425,14.85c-0.109,0-0.218-0.042-0.3-0.125l-3-3c-0.166-0.166-0.166-0.435,0-0.601c0.165-0.166,0.436-0.166,0.601,0l3,3
      c0.166,0.166,0.166,0.435,0,0.601C10.643,14.808,10.534,14.85,10.425,14.85z"/>
  </g>
  <g>
    <path d="M10.425,14.85c-0.109,0-0.218-0.042-0.3-0.125c-0.166-0.166-0.166-0.435,0-0.601l6-6c0.165-0.166,0.436-0.166,0.601,0
      c0.166,0.166,0.166,0.435,0,0.601l-6,6C10.643,14.808,10.534,14.85,10.425,14.85z"/>
  </g>
</svg>