	<svg version="1.1" id="Layer_1" xmlns="http://www.w3.org/2000/svg" xmlns:xlink="http://www.w3.org/1999/xlink" x="0px" y="0px" fill="#eca96e" 
							 width="22.85px" height="22.85px" viewBox="0 0 22.85 22.85" enable-background="new 0 0 22.85 22.85" xml:space="preserve">
						<g>
							<path d="M19.425,18.85h-4C15.19,18.85,15,18.66,15,18.425S15.19,18,15.425,18h4C20.845,18,22,16.845,22,15.425v-12
								c0-1.42-1.155-2.575-2.575-2.575h-16c-1.42,0-2.575,1.155-2.575,2.575v12C0.85,16.845,2.005,18,3.425,18h4
								c0.235,0,0.425,0.19,0.425,0.425S7.66,18.85,7.425,18.85h-4C1.536,18.85,0,17.313,0,15.425v-12C0,1.536,1.536,0,3.425,0h16
								c1.889,0,3.425,1.536,3.425,3.425v12C22.85,17.313,21.313,18.85,19.425,18.85z"/>
						</g>
						<g>
							<path d="M11.425,22.85c-0.109,0-0.218-0.042-0.3-0.125l-4-4c-0.166-0.166-0.166-0.435,0-0.601c0.165-0.166,0.436-0.166,0.601,0
								l3.7,3.699l3.699-3.699c0.166-0.166,0.436-0.166,0.602,0c0.166,0.166,0.166,0.435,0,0.601l-4,4
								C11.643,22.808,11.533,22.85,11.425,22.85z"/>
						</g>
						<g>
							<path d="M17.425,5.85h-12C5.19,5.85,5,5.66,5,5.425S5.19,5,5.425,5h12c0.234,0,0.425,0.19,0.425,0.425S17.659,5.85,17.425,5.85z"/>
						</g>
						<g>
							<path d="M12.425,9.85h-7C5.19,9.85,5,9.66,5,9.425S5.19,9,5.425,9h7c0.234,0,0.425,0.19,0.425,0.425S12.659,9.85,12.425,9.85z"/>
						</g>
						<g>
							<path d="M15.425,13.85h-10C5.19,13.85,5,13.66,5,13.425S5.19,13,5.425,13h10c0.234,0,0.425,0.19,0.425,0.425
								S15.659,13.85,15.425,13.85z"/>
						</g>
						</svg>