	<svg version="1.1" fill="#a5adbc" id="Layer_1" xmlns="http://www.w3.org/2000/svg" xmlns:xlink="http://www.w3.org/1999/xlink" x="0px" y="0px"
							 width="20.85px" height="18.85px" viewBox="0 0 20.85 18.85" enable-background="new 0 0 20.85 18.85" xml:space="preserve">
						<g>
							<path d="M18.425,9.85h-15C3.19,9.85,3,9.66,3,9.425v-9C3,0.19,3.19,0,3.425,0h17c0.129,0,0.251,0.058,0.331,0.159
								c0.081,0.101,0.111,0.232,0.084,0.358l-2,9C18.797,9.711,18.624,9.85,18.425,9.85z M3.85,9h14.234l1.811-8.15H3.85V9z"/>
						</g>
						<g>
							<path d="M3.425,0.85h-3C0.19,0.85,0,0.66,0,0.425S0.19,0,0.425,0h3C3.659,0,3.85,0.19,3.85,0.425S3.659,0.85,3.425,0.85z"/>
						</g>
						<g>
							<path d="M3.425,0.854c-0.11,0-0.22-0.05-0.3-0.13s-0.131-0.19-0.131-0.3c0-0.11,0.051-0.22,0.131-0.3c0.159-0.16,0.439-0.16,0.6,0
								c0.08,0.08,0.13,0.19,0.13,0.3c0,0.11-0.05,0.22-0.13,0.3S3.534,0.854,3.425,0.854z"/>
						</g>
						<g>
							<path d="M5.425,18.85C4.639,18.85,4,18.21,4,17.425S4.639,16,5.425,16s1.425,0.639,1.425,1.425S6.211,18.85,5.425,18.85z
								 M5.425,16.85c-0.317,0-0.575,0.258-0.575,0.575S5.107,18,5.425,18S6,17.742,6,17.425S5.742,16.85,5.425,16.85z"/>
						</g>
						<g>
							<path d="M16.425,18.85C15.639,18.85,15,18.21,15,17.425S15.639,16,16.425,16s1.425,0.639,1.425,1.425S17.211,18.85,16.425,18.85z
								 M16.425,16.85c-0.317,0-0.575,0.258-0.575,0.575S16.107,18,16.425,18S17,17.742,17,17.425S16.742,16.85,16.425,16.85z"/>
						</g>
						<g>
							<path d="M3.425,13.85C3.19,13.85,3,13.66,3,13.425v-4C3,9.19,3.19,9,3.425,9S3.85,9.19,3.85,9.425v4
								C3.85,13.66,3.659,13.85,3.425,13.85z"/>
						</g>
						<g>
							<path d="M18.425,13.85h-15C3.19,13.85,3,13.66,3,13.425S3.19,13,3.425,13h15c0.234,0,0.425,0.19,0.425,0.425
								S18.659,13.85,18.425,13.85z"/>
						</g>
						</svg>