<svg version="1.1" fill="#ffa500" id="Layer_1" xmlns="http://www.w3.org/2000/svg" xmlns:xlink="http://www.w3.org/1999/xlink" x="0px" y="0px"
								 width="33.814px" height="32.568px" viewBox="0 0 33.814 32.568" enable-background="new 0 0 33.814 32.568" xml:space="preserve">
  <g>
    <path d="M26.343,23.875H9.769c-0.276,0-0.5-0.224-0.5-0.5V12.371c0-0.276,0.224-0.5,0.5-0.5h2.983l1.179-2.868
      c0.077-0.188,0.26-0.31,0.462-0.31h7.325c0.203,0,0.385,0.122,0.462,0.31l1.179,2.868h2.982c0.276,0,0.5,0.224,0.5,0.5v11.004
      C26.843,23.651,26.619,23.875,26.343,23.875z M10.269,22.875h15.574V12.871h-2.817c-0.203,0-0.385-0.122-0.462-0.31l-1.179-2.868
      h-6.655l-1.179,2.868c-0.077,0.188-0.26,0.31-0.462,0.31h-2.818V22.875z"/>
  </g>
  <g>
    <path d="M18.056,21.201c-2.422,0-4.393-1.971-4.393-4.394s1.971-4.394,4.393-4.394c2.423,0,4.394,1.971,4.394,4.394
      S20.479,21.201,18.056,21.201z M18.056,13.414c-1.871,0-3.393,1.522-3.393,3.394s1.522,3.394,3.393,3.394
      c1.871,0,3.394-1.522,3.394-3.394S19.927,13.414,18.056,13.414z"/>
  </g>
  <g>
    <path d="M18.056,32.568c-7.526,0-14.064-5.348-15.546-12.716c-0.054-0.271,0.121-0.534,0.392-0.589
      c0.268-0.058,0.534,0.121,0.589,0.392c1.388,6.903,7.514,11.913,14.565,11.913c7.559,0,13.905-5.654,14.762-13.152
      c0.031-0.274,0.279-0.469,0.553-0.44c0.274,0.031,0.472,0.279,0.44,0.554C32.896,26.533,26.123,32.568,18.056,32.568z"/>
  </g>
  <g>
    <path d="M2.798,14.597c-0.019,0-0.038-0.001-0.057-0.003c-0.274-0.031-0.472-0.279-0.44-0.554C3.215,6.036,9.988,0,18.056,0
      c7.698,0,14.264,5.492,15.612,13.06c0.048,0.272-0.133,0.531-0.404,0.58c-0.273,0.045-0.532-0.133-0.58-0.404
      C31.42,6.146,25.268,1,18.056,1C10.497,1,4.151,6.654,3.294,14.153C3.266,14.408,3.049,14.597,2.798,14.597z"/>
  </g>
  <g>
    <path d="M2.999,15.172c-0.148,0-0.295-0.065-0.394-0.19l-2.498-3.174c-0.17-0.218-0.133-0.531,0.084-0.702
      c0.217-0.172,0.532-0.133,0.702,0.083l2.188,2.781l2.782-2.188c0.217-0.172,0.531-0.133,0.702,0.083
      c0.17,0.218,0.133,0.532-0.084,0.702l-3.175,2.498C3.216,15.137,3.106,15.172,2.999,15.172z"/>
  </g>
  <g>
    <path d="M35.612,21.582c-0.148,0-0.295-0.065-0.394-0.19L33.03,18.61l-2.781,2.188c-0.217,0.171-0.532,0.134-0.702-0.083
      c-0.17-0.218-0.133-0.531,0.084-0.702l3.174-2.498c0.217-0.172,0.532-0.134,0.702,0.083l2.498,3.174
      c0.17,0.218,0.133,0.531-0.084,0.702C35.829,21.547,35.72,21.582,35.612,21.582z"/>
  </g>
</svg>