<svg version="1.1" id="Layer_1" xmlns="http://www.w3.org/2000/svg" xmlns:xlink="http://www.w3.org/1999/xlink" x="0px" y="0px" fill="#eca96e"
								 width="39.639px" height="28.49px" viewBox="0 0 39.639 28.49" enable-background="new 0 0 39.639 28.49" xml:space="preserve">
							<g>
								<path d="M25.06,19.069H14.75c-0.359,0-0.65-0.291-0.65-0.65V4.078c0-0.359,0.291-0.65,0.65-0.65s0.65,0.291,0.65,0.65V17.77h9.01
									v-5.7c0-0.359,0.291-0.65,0.65-0.65s0.65,0.291,0.65,0.65v6.35C25.709,18.778,25.418,19.069,25.06,19.069z"/>
							</g>
							<g>
								<path d="M21.809,15.644h-3.808c-0.359,0-0.65-0.291-0.65-0.65v-3.807c0-0.359,0.291-0.65,0.65-0.65h3.808
									c0.359,0,0.65,0.291,0.65,0.65v3.807C22.458,15.353,22.167,15.644,21.809,15.644z M18.651,14.344h2.508v-2.507h-2.508V14.344z"/>
							</g>
							<g>
								<path d="M27.584,11.563c-0.136,0-0.272-0.048-0.388-0.15c-0.094-0.083-0.179-0.208-0.223-0.336L19.836,4.7l-7.096,6.339
									c-0.034,0.122-0.103,0.231-0.199,0.316c-0.271,0.235-0.717,0.238-0.952-0.032c-0.092-0.105-0.149-0.228-0.168-0.351
									c-0.021-0.069-0.029-0.143-0.025-0.217c0.009-0.173,0.086-0.335,0.216-0.451l7.723-6.898c0.174-0.155,0.41-0.201,0.622-0.137
									c0.143,0.002,0.28,0.045,0.383,0.137l7.722,6.898c0.129,0.115,0.207,0.277,0.216,0.449c0.006,0.113-0.017,0.225-0.067,0.325
									c-0.023,0.09-0.065,0.175-0.129,0.248C27.944,11.479,27.764,11.563,27.584,11.563z"/>
							</g>
							<g>
								<path d="M33.268,22.034H6.404c-1.213,0-2.2-0.987-2.2-2.201V2.201C4.205,0.987,5.191,0,6.404,0h26.863c1.213,0,2.2,0.987,2.2,2.201
									v17.633C35.467,21.047,34.48,22.034,33.268,22.034z M6.404,1.3c-0.496,0-0.9,0.404-0.9,0.901v17.633c0,0.497,0.404,0.901,0.9,0.901
									h26.863c0.496,0,0.9-0.404,0.9-0.901V2.201c0-0.497-0.404-0.901-0.9-0.901H6.404z"/>
							</g>
							<g>
								<path d="M38.988,27.909c-0.18,0-0.358-0.074-0.486-0.219l-5.116-5.773c-0.238-0.269-0.213-0.68,0.055-0.917
									c0.268-0.238,0.679-0.214,0.917,0.055l5.116,5.773c0.238,0.269,0.214,0.68-0.056,0.917C39.296,27.855,39.142,27.909,38.988,27.909z
									"/>
							</g>
							<g>
								<path d="M38.409,28.49c-0.359,0-0.65-0.292-0.65-0.65c0-0.336,0.256-0.613,0.583-0.646c0.019-0.182,0.113-0.354,0.274-0.466
									c0.296-0.206,0.7-0.133,0.905,0.161c0.19,0.272,0.21,0.616,0.052,0.918C39.37,28.195,38.869,28.49,38.409,28.49z"/>
							</g>
							<g>
								<path d="M38.409,28.49H1.279c-0.427,0-0.993-0.278-1.202-0.743c-0.141-0.313-0.088-0.666,0.138-0.92l5.116-5.772
									C5.57,20.786,5.979,20.762,6.249,21c0.269,0.238,0.293,0.649,0.055,0.917l-4.635,5.23l36.74,0.042c0.359,0,0.65,0.291,0.65,0.65
									S38.769,28.49,38.409,28.49z"/>
							</g>
							</svg>