<svg version="1.1" id="Layer_1" xmlns="http://www.w3.org/2000/svg" xmlns:xlink="http://www.w3.org/1999/xlink" x="0px" y="0px" fill="#eca96e"
								 width="32.477px" height="35.883px" viewBox="0 0 32.477 35.883" enable-background="new 0 0 32.477 35.883" xml:space="preserve">
							<g>
								<path d="M8.341,20.768C8.341,20.768,8.341,20.768,8.341,20.768c-2.344,0-4.472-0.838-5.992-2.358
									C-1.28,14.779-0.632,8.226,3.793,3.8C6.208,1.385,9.349,0,12.41,0c2.343,0,4.471,0.838,5.992,2.359
									c3.629,3.629,2.981,10.183-1.443,14.609C14.542,19.383,11.402,20.768,8.341,20.768z M12.41,1.3c-2.719,0-5.524,1.247-7.698,3.419
									c-3.918,3.919-4.565,9.648-1.443,12.77c1.293,1.294,3.047,1.979,5.072,1.979h0c2.719,0,5.524-1.246,7.698-3.42
									c3.918-3.919,4.566-9.647,1.443-12.77C16.188,1.984,14.434,1.3,12.41,1.3z"/>
							</g>
							<g>
								<path d="M8.872,16.601C8.872,16.601,8.872,16.601,8.872,16.601c-1.354,0-2.526-0.457-3.391-1.323
									c-1.045-1.045-1.495-2.545-1.264-4.225c0.221-1.613,1.05-3.208,2.335-4.492c1.521-1.521,3.463-2.394,5.328-2.394
									c1.353,0,2.526,0.458,3.391,1.323c1.045,1.045,1.494,2.546,1.263,4.226c-0.221,1.613-1.051,3.208-2.335,4.492
									C12.678,15.729,10.736,16.601,8.872,16.601z M11.88,5.467c-1.5,0-3.149,0.752-4.409,2.012c-1.085,1.085-1.783,2.417-1.966,3.75
									c-0.174,1.267,0.144,2.378,0.896,3.129c0.616,0.617,1.47,0.942,2.471,0.942c0,0,0,0,0,0c1.5,0,3.148-0.752,4.409-2.012
									c2.192-2.192,2.672-5.278,1.071-6.88C13.735,5.792,12.881,5.467,11.88,5.467z"/>
							</g>
							<g>
								<path d="M28.68,32.483c-0.61,0-1.174-0.229-1.595-0.648L14.03,18.78c-0.254-0.254-0.254-0.666,0-0.92s0.665-0.254,0.919,0
									l13.056,13.055c0.386,0.388,1.077,0.349,1.506-0.082l1.312-1.312c0.438-0.439,0.477-1.115,0.085-1.508L17.851,14.958
									c-0.254-0.254-0.254-0.666,0-0.919s0.666-0.254,0.92,0l13.057,13.056c0.897,0.899,0.859,2.399-0.085,3.345l-1.312,1.313
									c-0.45,0.45-1.042,0.709-1.668,0.73C28.736,32.483,28.708,32.483,28.68,32.483z"/>
							</g>
							<g>
								<path d="M23.247,35.883c-0.166,0-0.333-0.063-0.46-0.19c-1.093-1.094-1.954-2.003-2.808-2.904
									c-0.825-0.872-1.644-1.737-2.663-2.756c-0.254-0.254-0.254-0.666,0-0.92l3.863-3.863c0.254-0.254,0.666-0.254,0.92,0
									s0.254,0.666,0,0.92l-3.405,3.405c0.822,0.834,1.523,1.574,2.229,2.32c0.723,0.764,1.451,1.533,2.325,2.417l3.496-3.496
									c0.254-0.254,0.666-0.254,0.92,0s0.254,0.666,0,0.92l-3.958,3.957C23.58,35.819,23.413,35.883,23.247,35.883z"/>
							</g>
							<g>
								<path d="M20.472,32.756c-0.166,0-0.333-0.063-0.46-0.19c-0.254-0.254-0.254-0.666,0-0.92l1.557-1.557
									c0.254-0.254,0.666-0.254,0.92,0s0.254,0.666,0,0.92l-1.557,1.557C20.805,32.692,20.638,32.756,20.472,32.756z"/>
							</g>
							</svg>