<svg version="1.1" fill="#a5adbc" id="Layer_1" xmlns="http://www.w3.org/2000/svg" xmlns:xlink="http://www.w3.org/1999/xlink" x="0px" y="0px"
								 width="34.016px" height="26.103px" viewBox="1088.5 2880.766 34.016 26.103" enable-background="new 1088.5 2880.766 34.016 26.103" xml:space="preserve">
  <g>
      <path d="M1120.786,2893.43v-9.79h-2.854v1.605h-1.43c-2.964-2.887-6.86-4.477-10.997-4.479c-0.004,0-0.008,0-0.012,0
        c-4.133,0-8.024,1.584-10.98,4.465l-1.381,0.011v-1.602h-2.854v9.779c-1.016,0.23-1.777,1.141-1.777,2.226v5.255v4.295h1.126
        v1.674h3.633v-1.674h24.497v1.674h3.634v-1.674h1.126v-4.295v-5.255C1122.515,2894.576,1121.778,2893.678,1120.786,2893.43z
          M1118.941,2884.65h0.834v8.712h-0.834V2884.65z M1093.152,2886.252l1.781-0.014l0.146-0.146
        c5.746-5.746,15.103-5.739,20.858,0.016l0.148,0.148h1.826v7.106h-1.935v-2.377h-8.896v2.377h-3.145v-2.377h-8.896v2.377h-1.888
        V2886.252z M1114.966,2891.995v1.367h-6.875v-1.367H1114.966z M1102.925,2891.995v1.367h-6.875v-1.367H1102.925z
          M1091.287,2884.65h0.833v8.712h-0.833V2884.65z M1092.249,2905.857h-1.612v-0.663h1.612V2905.857z M1120.379,2905.857
        L1120.379,2905.857h-1.612v-0.663h1.612V2905.857z M1121.506,2904.184h-0.116h-3.634h-24.497h-3.633h-0.116v-2.273h31.996
        V2904.184L1121.506,2904.184z M1121.506,2900.899h-31.996v-5.255c0-0.701,0.571-1.272,1.272-1.272h1.359h0.99h1.908h8.896h3.145
        h8.896h1.955h0.99h1.312c0.701,0,1.272,0.571,1.272,1.272V2900.899L1121.506,2900.899z"/>
  </g>
</svg>